<svg version="1.1" id="Layer_1" xmlns="http://www.w3.org/2000/svg" xmlns:xlink="http://www.w3.org/1999/xlink" x="0px" y="0px" width="100%" viewBox="0 0 2000 2000" enable-background="new 0 0 2000 2000" xml:space="preserve">

<path fill="#C9A84C" opacity="1.000000" stroke="none" d="
M360.340332,191.274536 
	C372.569214,183.118729 384.269409,174.804871 396.480164,167.324387 
	C409.249023,159.501999 422.458862,152.390762 435.563965,145.127502 
	C467.543549,127.403473 501.154846,113.186249 535.668152,101.465530 
	C559.753784,93.286041 584.615295,87.267982 609.343811,81.147606 
	C626.071106,77.007553 643.129150,74.136620 660.118896,71.151382 
	C668.979004,69.594566 678.029114,69.152954 686.962891,67.975868 
	C727.821594,62.592464 768.881226,65.557495 809.847900,65.220047 
	C822.557617,65.115356 835.301819,67.509872 848.006165,68.969368 
	C858.240662,70.145126 868.481384,71.378387 878.642517,73.052666 
	C891.168762,75.116638 903.792114,76.979156 916.059631,80.145157 
	C941.675537,86.756210 967.356689,93.328888 992.503784,101.481850 
	C1017.849304,109.699104 1042.404541,120.125206 1066.550049,131.613647 
	C1097.242065,146.216934 1126.756104,162.765549 1154.626587,182.087952 
	C1173.664917,195.287033 1192.095825,209.426132 1210.176758,223.920120 
	C1223.277588,234.421951 1235.609863,245.929886 1247.825195,257.475403 
	C1259.977783,268.961517 1272.128174,280.543518 1283.260986,292.994324 
	C1302.896973,314.955200 1321.302612,337.936676 1338.144287,362.187439 
	C1354.064209,385.111206 1368.520142,408.866882 1381.796509,433.385101 
	C1397.092773,461.633667 1409.794189,491.019623 1421.116577,521.060608 
	C1431.038940,547.386780 1439.078857,574.288391 1445.617676,601.589783 
	C1449.931641,619.601562 1452.951294,637.950562 1455.898804,656.253540 
	C1458.135498,670.142883 1459.150146,684.224182 1461.049683,698.173584 
	C1465.525513,731.042419 1464.196045,764.093750 1463.741699,797.058533 
	C1463.486572,815.568359 1461.124146,834.101440 1458.861694,852.519653 
	C1455.026489,883.743530 1449.241943,914.712708 1440.745728,944.960632 
	C1433.307983,971.440796 1424.783447,997.755737 1414.576416,1023.278809 
	C1404.260498,1049.074219 1391.980835,1074.162720 1379.289917,1098.908813 
	C1365.490479,1125.816284 1348.807251,1151.070312 1330.996094,1175.539307 
	C1323.335571,1186.063354 1315.829346,1196.699707 1307.570190,1208.239014 
	C1309.048462,1209.345459 1310.806274,1210.356445 1312.190918,1211.740723 
	C1524.457886,1423.956909 1736.694580,1636.203125 1948.944580,1848.436279 
	C1964.932983,1864.423462 1972.881470,1883.697388 1970.844482,1906.197144 
	C1968.619995,1930.768433 1956.373047,1949.668457 1934.827637,1961.893555 
	C1927.480347,1966.062500 1919.461548,1968.897583 1910.477051,1968.123169 
	C1903.363525,1967.510010 1896.148560,1967.806519 1888.989990,1968.043457 
	C1877.272461,1968.431396 1867.764771,1962.905029 1859.049805,1956.285522 
	C1852.096191,1951.003784 1846.040039,1944.494995 1839.829834,1938.286377 
	C1630.745483,1729.251343 1421.683594,1520.193848 1212.694336,1311.063721 
	C1209.497559,1307.864868 1207.954224,1307.306641 1203.757324,1310.385986 
	C1184.228394,1324.714233 1164.521606,1338.858765 1144.221558,1352.058838 
	C1128.017090,1362.595947 1111.275024,1372.485840 1094.036255,1381.209717 
	C1070.113403,1393.316040 1045.934448,1405.144165 1021.060425,1415.076294 
	C997.686768,1424.409424 973.413147,1431.611328 949.257385,1438.818726 
	C933.568115,1443.500122 917.461426,1446.913940 901.391296,1450.147827 
	C887.330322,1452.977417 873.113220,1455.224731 858.867310,1456.894165 
	C840.610596,1459.033936 822.285706,1460.968506 803.935547,1461.837646 
	C782.203430,1462.866821 760.400330,1463.269775 738.652161,1462.806885 
	C721.570374,1462.443481 704.493958,1460.662476 687.473389,1458.936890 
	C671.856506,1457.353638 656.248901,1455.418335 640.765076,1452.863281 
	C627.464111,1450.668335 614.191956,1447.944336 601.176941,1444.448853 
	C578.610352,1438.388062 556.070496,1432.107178 533.866638,1424.855469 
	C517.250488,1419.428711 500.957825,1412.839966 484.927460,1405.838379 
	C467.782593,1398.349731 450.840698,1390.288330 434.298370,1381.552490 
	C405.625977,1366.411011 377.944031,1349.571045 352.234985,1329.702393 
	C336.454346,1317.506714 320.370544,1305.630493 305.343109,1292.553345 
	C289.841919,1279.063843 274.918915,1264.805420 260.729645,1249.941406 
	C245.706116,1234.203369 231.112488,1217.932129 217.668594,1200.841553 
	C202.273300,1181.270264 187.793320,1160.912476 173.974152,1140.190308 
	C164.071350,1125.340942 155.825989,1109.378174 146.988541,1093.828247 
	C132.146912,1067.713745 120.272835,1040.181396 109.812065,1012.118958 
	C102.001854,991.166931 95.384827,969.728699 89.168076,948.237488 
	C84.430489,931.859680 80.729553,915.144531 77.361977,898.419556 
	C74.627052,884.836609 72.661888,871.062622 71.095757,857.289185 
	C69.018082,839.017029 66.937263,820.693054 66.170563,802.336548 
	C65.130508,777.435425 64.787590,752.473267 65.203537,727.554932 
	C65.463570,711.976807 66.874031,696.311523 69.188431,680.898621 
	C72.787437,656.930847 77.422539,633.111877 81.936577,609.290100 
	C87.052650,582.291321 94.694565,555.907410 104.199799,530.193848 
	C112.585945,507.507568 122.209396,485.244324 132.083588,463.150513 
	C147.145889,429.448151 165.789948,397.679504 187.001266,367.504883 
	C198.731232,350.818176 211.226624,334.638702 223.974503,318.708771 
	C233.224564,307.149719 243.278168,296.212830 253.300644,285.298981 
	C262.393677,275.397278 271.545532,265.490601 281.366211,256.331024 
	C293.628387,244.894302 306.372070,233.940613 319.331635,223.294174 
	C332.633636,212.366425 346.446686,202.060699 360.340332,191.274536 
M1310.013428,717.223145 
	C1308.655762,703.834595 1308.018799,690.322937 1305.759766,677.088257 
	C1302.863647,660.120239 1298.901367,643.319092 1294.974609,626.545349 
	C1286.533325,590.487244 1273.335205,556.097168 1257.283691,522.813965 
	C1244.879517,497.093750 1230.077515,472.762024 1213.891602,449.203949 
	C1199.841675,428.754852 1184.438477,409.397888 1167.570801,391.335999 
	C1145.348999,367.540710 1121.558716,345.346924 1095.389160,325.778961 
	C1070.429932,307.115967 1044.368652,290.270020 1016.688416,275.956207 
	C985.689514,259.926300 953.646790,246.432190 919.998962,236.996078 
	C907.186584,233.402969 894.344788,229.755692 881.314392,227.139084 
	C865.017883,223.866562 848.547668,221.391724 832.087036,219.027100 
	C820.089417,217.303619 808.014099,215.792938 795.922058,215.145599 
	C783.614807,214.486725 771.243042,214.872696 758.902832,215.040298 
	C748.302368,215.184280 737.690308,215.407135 727.113098,216.070160 
	C716.469116,216.737381 705.768616,217.413605 695.258423,219.110779 
	C675.170593,222.354553 655.078430,225.769058 635.207581,230.115891 
	C598.555237,238.133743 563.466797,250.972183 529.673462,267.160736 
	C501.262299,280.770996 473.839752,296.297729 448.573151,315.161469 
	C429.435455,329.449432 410.523773,344.197296 392.790955,360.161682 
	C377.799042,373.658508 364.146759,388.759735 350.823120,403.958710 
	C338.869232,417.595123 327.819275,432.071259 317.003540,446.646637 
	C302.129333,466.691193 289.269440,488.079407 278.057404,510.362152 
	C270.478668,525.424072 263.670868,540.893188 256.994263,556.385376 
	C246.831131,579.967529 238.950912,604.375305 233.118088,629.356567 
	C229.125671,646.455627 225.793686,663.750427 223.123581,681.104980 
	C220.461365,698.408447 217.686066,715.867310 217.310730,733.308655 
	C216.765656,758.639771 217.769897,784.047852 219.199615,809.361755 
	C220.091171,825.147156 222.165665,840.978149 225.175278,856.504517 
	C229.407227,878.336914 233.991180,900.201416 240.245392,921.518005 
	C249.759888,953.947266 262.115875,985.406433 278.612549,1015.040100 
	C287.074951,1030.241333 295.659119,1045.397461 304.823792,1060.180054 
	C319.579437,1083.980835 336.854736,1105.991211 355.530670,1126.787231 
	C367.358551,1139.957764 380.096191,1152.380615 393.112640,1164.394653 
	C405.885925,1176.184204 419.228699,1187.409912 432.855835,1198.208862 
	C455.994537,1216.545410 480.897919,1232.325684 507.096130,1245.882935 
	C523.855652,1254.555786 540.911377,1262.834839 558.412292,1269.847900 
	C577.362549,1277.441772 596.768250,1284.100586 616.368225,1289.821045 
	C641.058350,1297.026978 666.248901,1302.352173 691.907227,1305.060669 
	C707.394470,1306.695435 722.849792,1309.265259 738.372864,1309.768555 
	C757.771606,1310.397583 777.235474,1309.612549 796.651245,1308.897339 
	C808.117432,1308.474854 819.591675,1307.371948 830.978760,1305.920044 
	C846.665344,1303.919922 862.440796,1302.076782 877.869568,1298.739502 
	C894.945984,1295.045898 911.872375,1290.354614 928.499451,1284.971558 
	C945.780212,1279.377075 962.953064,1273.183594 979.575500,1265.890015 
	C999.316284,1257.228271 1018.973206,1248.081421 1037.661621,1237.388550 
	C1062.073120,1223.421143 1085.512329,1207.743408 1106.995972,1189.407227 
	C1119.358154,1178.856079 1132.187744,1168.767578 1143.780518,1157.421875 
	C1157.220825,1144.267944 1169.929443,1130.303833 1182.220215,1116.056885 
	C1192.994873,1103.567261 1203.387207,1090.643677 1212.826538,1077.128174 
	C1232.677734,1048.704346 1250.049805,1018.797363 1264.063965,986.990906 
	C1273.367065,965.876648 1281.656372,944.451538 1288.352539,922.330750 
	C1296.192261,896.432861 1302.680298,870.300903 1305.976807,843.436584 
	C1308.150024,825.726807 1311.110107,808.015808 1311.722412,790.236633 
	C1312.516479,767.180908 1311.336304,744.056702 1310.953857,720.962830 
	C1310.938232,720.024109 1310.388794,719.094177 1310.013428,717.223145 
z" data-index="1" style="opacity: 1;"></path>

<path fill="#C9A84C" opacity="1.000000" stroke="none" d="
M407.750275,1109.252197 
	C395.524719,1092.369141 383.491577,1075.786133 371.632019,1059.079956 
	C369.010834,1055.387695 367.568451,1050.751221 364.590637,1047.442871 
	C359.131073,1041.377319 360.539795,1035.842163 364.424194,1030.008423 
	C373.618164,1016.200562 382.689331,1002.307800 392.096283,988.646423 
	C395.336578,983.940613 399.154358,979.550964 403.179443,975.483032 
	C413.059845,965.497864 422.926544,955.465210 433.345123,946.056763 
	C442.437378,937.845886 451.879211,929.899109 461.879120,922.845886 
	C476.179474,912.759399 490.689667,902.811707 505.921906,894.248413 
	C521.942139,885.242188 538.576416,877.104797 555.570923,870.116272 
	C573.370728,862.796692 591.719604,856.619934 610.195374,851.192139 
	C627.625427,846.071533 645.463318,842.247131 663.256409,838.489990 
	C673.468506,836.333618 683.915894,835.128723 694.315369,834.060303 
	C710.009644,832.447815 725.753967,831.321167 741.479309,830.014832 
	C742.790100,829.905945 744.117798,830.000488 746.099548,830.000488 
	C742.555359,846.179199 739.130249,861.970276 735.632507,877.745361 
	C730.108093,902.660583 724.558350,927.570190 718.973572,952.471985 
	C715.594727,967.538025 712.098022,982.577698 708.710754,997.641907 
	C703.112732,1022.537903 697.590271,1047.450928 691.977661,1072.343750 
	C688.546265,1087.562012 685.026062,1102.760376 681.502380,1117.957642 
	C680.439636,1122.540649 678.550903,1127.060913 678.354248,1131.666016 
	C678.243103,1134.269165 680.319214,1137.417725 682.243713,1139.578125 
	C690.702515,1149.073853 699.572632,1158.201904 708.093201,1167.644287 
	C721.850647,1182.889893 735.417908,1198.306885 749.134094,1213.590088 
	C754.099243,1219.122559 759.261658,1224.478027 764.684326,1230.289551 
	C774.082642,1219.724365 783.300293,1209.298950 792.591003,1198.939209 
	C799.295776,1191.463013 806.122070,1184.095825 812.851074,1176.641113 
	C824.983826,1163.199707 837.166199,1149.800537 849.073486,1136.161743 
	C850.281982,1134.777344 850.374817,1131.743286 849.936890,1129.699463 
	C844.384277,1103.786865 838.688232,1077.904419 832.925598,1052.037354 
	C829.355774,1036.013184 825.555664,1020.040527 821.956909,1004.022705 
	C816.576782,980.076355 811.339050,956.097900 805.932434,932.157532 
	C802.388428,916.464905 798.566101,900.835083 795.026672,885.141418 
	C790.919250,866.929749 786.984985,848.679016 782.740479,829.376038 
	C793.871704,830.257324 804.364563,831.033813 814.846497,831.937073 
	C821.707642,832.528320 828.586243,833.070557 835.398315,834.044861 
	C848.801941,835.961853 862.240112,837.772522 875.528259,840.331787 
	C901.884827,845.408081 927.644958,852.780151 952.870789,861.951538 
	C975.162231,870.055969 996.844910,879.593201 1017.556824,891.155823 
	C1029.697998,897.933838 1041.723999,905.018127 1053.223389,912.817688 
	C1064.529297,920.485840 1075.550293,928.715027 1085.884644,937.638184 
	C1098.407349,948.450745 1110.646362,959.714966 1121.978027,971.753418 
	C1137.079712,987.797241 1150.037598,1005.624207 1161.252441,1024.652222 
	C1162.153931,1026.181519 1162.945068,1027.832153 1164.107666,1029.142090 
	C1172.033691,1038.073364 1166.416992,1045.600708 1161.465210,1052.918091 
	C1150.344727,1069.351929 1139.288452,1085.848511 1127.540039,1101.830200 
	C1121.225708,1110.420044 1113.573975,1118.032959 1106.450439,1126.019409 
	C1102.390991,1130.570679 1098.294556,1135.099731 1094.016968,1139.444092 
	C1076.326660,1157.410034 1057.192627,1173.752319 1036.802734,1188.531860 
	C1015.728394,1203.807373 993.623535,1217.496338 970.197510,1228.956055 
	C936.941040,1245.224609 902.230347,1257.517578 866.183533,1265.750854 
	C851.440979,1269.118042 836.326111,1271.038452 821.290710,1272.884766 
	C808.406982,1274.467041 795.404724,1275.163208 782.436707,1275.953369 
	C772.686829,1276.547241 762.862549,1277.423584 753.152222,1276.836670 
	C735.296753,1275.757568 717.468018,1273.982910 699.687073,1271.975830 
	C668.519470,1268.458008 638.354370,1260.533813 608.873718,1250.004028 
	C584.194580,1241.189087 560.499146,1230.276733 537.580017,1217.448120 
	C518.062378,1206.523315 499.606750,1194.118164 481.728088,1180.824707 
	C472.402130,1173.890503 463.736420,1166.047729 454.967896,1158.391602 
	C449.122650,1153.287720 443.347168,1148.048584 438.026123,1142.411499 
	C427.836395,1131.616211 417.992584,1120.494385 407.750275,1109.252197 
z" data-index="3"></path>
<path fill="#C9A84C" opacity="1.000000" stroke="none" d="
M732.215942,365.006348 
	C744.362122,364.334503 756.048340,363.372742 767.751526,363.072205 
	C783.575012,362.665863 799.071960,365.264771 814.501770,368.703125 
	C839.133606,374.192108 861.698792,384.364868 882.748840,398.011597 
	C896.705078,407.059418 909.697449,417.425476 921.041260,429.627075 
	C938.962341,448.903351 953.176453,470.579926 963.576233,494.886688 
	C970.986633,512.206665 976.372803,530.050171 978.774475,548.599854 
	C980.506836,561.979126 981.452026,575.663879 980.759583,589.109985 
	C979.432983,614.869568 974.187561,639.937439 963.726257,663.774353 
	C954.667969,684.414246 943.016174,703.270813 928.269043,720.377380 
	C911.675232,739.626282 892.480225,755.482727 870.376160,767.959717 
	C848.237427,780.456238 824.577759,789.089050 799.564575,792.643616 
	C782.782654,795.028320 765.491882,795.619385 748.551270,794.716003 
	C716.603455,793.012207 686.504456,783.729553 658.481445,768.109070 
	C643.749451,759.897217 630.378906,749.880859 617.875061,738.513855 
	C598.375305,720.786987 583.097473,700.041016 571.224487,676.625671 
	C561.009888,656.481018 553.639160,635.420105 551.065857,612.914978 
	C549.648438,600.519043 548.207947,588.037537 548.175598,575.591003 
	C548.120178,554.231812 552.141541,533.410217 558.441162,512.959839 
	C565.971680,488.513855 577.867920,466.382507 593.431763,446.297058 
	C610.504272,424.264832 631.242798,406.209442 655.420410,392.180969 
	C672.692261,382.159363 691.006653,374.640411 710.239807,369.428528 
	C717.295288,367.516541 724.582214,366.458527 732.215942,365.006348 
z" data-index="4"></path>
</svg>